<svg width="141" height="31" viewBox="0 0 141 31" fill="none" xmlns="http://www.w3.org/2000/svg">
<path d="M23.1612 13.8713C22.7822 14.2526 22.492 14.7128 22.3112 15.219C22.1304 15.7253 22.0635 16.2652 22.1152 16.8003L22.0972 16.7823C22.1504 17.4122 22.0654 18.046 21.8483 18.6397C21.6312 19.2333 21.2872 19.7724 20.8403 20.2194C20.3933 20.6663 19.8542 21.0104 19.2605 21.2274C18.6669 21.4445 18.033 21.5295 17.4032 21.4763L17.4212 21.4943C16.6678 21.4242 15.9111 21.5881 15.2542 21.9638C14.5974 22.3395 14.0724 22.9086 13.7509 23.5936C13.4294 24.2786 13.3269 25.046 13.4575 25.7914C13.5882 26.5367 13.9455 27.2236 14.4808 27.7584C15.0161 28.2932 15.7033 28.6499 16.4487 28.7798C17.1942 28.9098 17.9615 28.8066 18.6462 28.4845C19.3309 28.1623 19.8995 27.6369 20.2746 26.9797C20.6497 26.3225 20.813 25.5657 20.7422 24.8123L20.7612 24.8303C20.708 24.2005 20.7929 23.5666 21.01 22.9729C21.2271 22.3793 21.5712 21.8402 22.0181 21.3932C22.4651 20.9463 23.0042 20.6022 23.5978 20.3852C24.1915 20.1681 24.8253 20.0831 25.4552 20.1363L25.4362 20.1183C26.0516 20.1736 26.6711 20.0727 27.2372 19.8249C27.8032 19.5771 28.2976 19.1904 28.6744 18.7007C29.0512 18.211 29.2984 17.634 29.3928 17.0234C29.4873 16.4127 29.4261 15.7881 29.2149 15.2073C29.0037 14.6266 28.6493 14.1086 28.1846 13.7013C27.7199 13.294 27.1599 13.0106 26.5565 12.8774C25.9531 12.7442 25.3258 12.7654 24.7328 12.9391C24.1398 13.1129 23.6003 13.4335 23.1642 13.8713H23.1612Z" fill="#DAC5A7"/>
<path d="M15.7843 19.1362L15.7653 19.1182C16.3006 19.1721 16.8412 19.1064 17.3481 18.9258C17.8549 18.7452 18.3153 18.4543 18.6959 18.074C19.0764 17.6937 19.3678 17.2335 19.5487 16.7268C19.7297 16.2201 19.7958 15.6796 19.7423 15.1442L19.7613 15.1622C19.7081 14.5323 19.7931 13.8985 20.0101 13.3048C20.2272 12.7112 20.5713 12.1721 21.0182 11.7251C21.4652 11.2782 22.0043 10.9341 22.5979 10.7171C23.1916 10.5 23.8254 10.4151 24.4553 10.4682L24.4363 10.4502C25.1898 10.521 25.9467 10.3576 26.6039 9.98234C27.2612 9.60708 27.7866 9.03821 28.1086 8.35334C28.4306 7.66848 28.5335 6.90095 28.4033 6.15544C28.2731 5.40993 27.9161 4.72275 27.3809 4.18761C26.8458 3.65248 26.1586 3.29544 25.4131 3.16522C24.6676 3.03499 23.9001 3.1379 23.2152 3.45992C22.5303 3.78193 21.9615 4.30738 21.5862 4.96459C21.2109 5.62179 21.0475 6.37876 21.1183 7.13224L21.1003 7.11324C21.1536 7.74313 21.0688 8.37707 20.8518 8.97079C20.6348 9.56451 20.2907 10.1037 19.8438 10.5507C19.3968 10.9976 18.8576 11.3417 18.2639 11.5587C17.6701 11.7757 17.0362 11.8605 16.4063 11.8072L16.4243 11.8262C15.889 11.7723 15.3483 11.838 14.8415 12.0186C14.3347 12.1991 13.8743 12.4901 13.4937 12.8704C13.1131 13.2507 12.8218 13.7109 12.6408 14.2176C12.4599 14.7243 12.3938 15.2648 12.4473 15.8002L12.4293 15.7822C12.4823 16.412 12.3972 17.0458 12.1801 17.6394C11.9629 18.2329 11.6189 18.772 11.172 19.2189C10.7251 19.6658 10.1861 20.0098 9.5925 20.227C8.99894 20.4441 8.36515 20.5292 7.73534 20.4762L7.75334 20.4942C6.99986 20.4234 6.24289 20.5868 5.58568 20.9621C4.92848 21.3374 4.40303 21.9062 4.08102 22.5911C3.759 23.276 3.65608 24.0435 3.78631 24.789C3.91654 25.5345 4.27358 26.2217 4.80871 26.7568C5.34385 27.292 6.03103 27.649 6.77654 27.7792C7.52205 27.9094 8.28958 27.8065 8.97445 27.4845C9.65931 27.1625 10.2282 26.6371 10.6034 25.9799C10.9787 25.3226 11.1421 24.5657 11.0713 23.8122L11.0903 23.8302C11.0371 23.2003 11.1221 22.5665 11.3392 21.9728C11.5562 21.3792 11.9003 20.8401 12.3472 20.3931C12.7942 19.9462 13.3333 19.6021 13.9269 19.3851C14.5206 19.168 15.1544 19.083 15.7843 19.1362Z" fill="#DAC5A7"/>
<path d="M9.0824 17.1289C9.46142 16.7477 9.7516 16.2875 9.93224 15.7812C10.1129 15.2749 10.1795 14.7349 10.1274 14.1999L10.1464 14.2179C10.0932 13.5879 10.1781 12.9538 10.3954 12.36C10.6126 11.7662 10.9568 11.227 11.404 10.78C11.8512 10.3331 12.3905 9.98907 12.9844 9.77212C13.5783 9.55516 14.2124 9.47046 14.8424 9.52394L14.8234 9.50594C15.5766 9.57651 16.3333 9.41302 16.9902 9.03778C17.6471 8.66255 18.1722 8.09382 18.4941 7.40917C18.8159 6.72451 18.9187 5.95726 18.7885 5.21203C18.6583 4.4668 18.3013 3.77988 17.7664 3.24494C17.2315 2.71 16.5445 2.35308 15.7993 2.22286C15.0541 2.09263 14.2868 2.19545 13.6022 2.51727C12.9175 2.83909 12.3488 3.36426 11.9736 4.02116C11.5983 4.67806 11.4348 5.43472 11.5054 6.18794L11.4874 6.16994C11.5406 6.79979 11.4556 7.43366 11.2385 8.0273C11.0214 8.62094 10.6774 9.16005 10.2305 9.60701C9.78351 10.054 9.24439 10.398 8.65075 10.615C8.05711 10.8321 7.42325 10.9171 6.7934 10.8639L6.8114 10.8819C6.19597 10.8267 5.57656 10.9278 5.01058 11.1757C4.4446 11.4236 3.95035 11.8104 3.57364 12.3002C3.19693 12.7899 2.94995 13.3669 2.85557 13.9775C2.7612 14.5882 2.82249 15.2128 3.03376 15.7934C3.24503 16.3741 3.59946 16.892 4.06419 17.2992C4.52892 17.7065 5.08892 17.9898 5.6923 18.123C6.29567 18.2561 6.9229 18.2348 7.51587 18.0611C8.10883 17.8873 8.64833 17.5667 9.08439 17.1289H9.0824Z" fill="#DAC5A7"/>
<path d="M40.0591 7.15527H43.0291V21.6083H40.0591V7.15527Z" fill="#DAC5A7"/>
<path d="M44.7111 16.6586C44.707 15.62 45.0112 14.6034 45.5852 13.7378C46.1592 12.8722 46.9772 12.1964 47.9356 11.7961C48.894 11.3957 49.9496 11.2888 50.9688 11.4889C51.988 11.689 52.9249 12.187 53.6608 12.92C54.3967 13.6529 54.8985 14.5878 55.1027 15.6062C55.3069 16.6246 55.2042 17.6807 54.8077 18.6407C54.4112 19.6006 53.7387 20.4214 52.8754 20.9988C52.012 21.5763 50.9968 21.8846 49.9581 21.8846C49.2687 21.8925 48.5846 21.7628 47.9458 21.5032C47.307 21.2436 46.7264 20.8593 46.2379 20.3728C45.7493 19.8862 45.3627 19.3071 45.1006 18.6694C44.8384 18.0317 44.706 17.3481 44.7111 16.6586ZM52.2351 16.6586C52.2227 16.2109 52.0786 15.7768 51.8209 15.4105C51.5631 15.0443 51.2031 14.7621 50.7859 14.5994C50.3686 14.4366 49.9127 14.4004 49.475 14.4954C49.0373 14.5904 48.6373 14.8122 48.325 15.1333C48.0128 15.4543 47.802 15.8603 47.7193 16.3005C47.6365 16.7406 47.6852 17.1954 47.8595 17.608C48.0338 18.0206 48.3258 18.3726 48.699 18.6201C49.0723 18.8676 49.5103 18.9996 49.9581 18.9996C50.2648 19.0078 50.5699 18.9523 50.8542 18.8367C51.1384 18.7211 51.3956 18.5479 51.6095 18.328C51.8234 18.108 51.9895 17.8461 52.0971 17.5588C52.2048 17.2715 52.2518 16.965 52.2351 16.6586Z" fill="#DAC5A7"/>
<path d="M67.0421 11.7088V21.1088C67.0421 24.4348 64.4481 25.8408 61.8151 25.8408C60.8881 25.9102 59.9598 25.7229 59.1321 25.2996C58.3045 24.8762 57.6094 24.2331 57.1231 23.4408L59.6571 21.9758C59.8615 22.3888 60.1872 22.7295 60.5905 22.9524C60.9939 23.1752 61.4557 23.2696 61.9141 23.2228C62.2071 23.2634 62.5055 23.2376 62.7872 23.1473C63.0688 23.057 63.3266 22.9045 63.5414 22.7012C63.7562 22.4978 63.9225 22.2488 64.0281 21.9724C64.1336 21.6961 64.1756 21.3996 64.1511 21.1048V20.1998C63.8033 20.6253 63.3607 20.9634 62.8586 21.1869C62.3565 21.4104 61.8091 21.5131 61.2601 21.4868C59.9539 21.4456 58.715 20.8978 57.8056 19.9592C56.8962 19.0207 56.3877 17.7651 56.3877 16.4583C56.3877 15.1515 56.8962 13.8959 57.8056 12.9574C58.715 12.0188 59.9539 11.471 61.2601 11.4298C61.8091 11.4035 62.3565 11.5062 62.8586 11.7297C63.3607 11.9532 63.8033 12.2913 64.1511 12.7168V11.7068L67.0421 11.7088ZM64.1521 16.4598C64.1721 15.9812 64.0483 15.5075 63.7968 15.0998C63.5453 14.692 63.1775 14.3689 62.7408 14.172C62.3041 13.975 61.8185 13.9133 61.3464 13.9947C60.8743 14.0761 60.4374 14.2969 60.0918 14.6288C59.7463 14.9606 59.508 15.3882 59.4075 15.8566C59.3071 16.325 59.3491 16.8128 59.5283 17.2571C59.7074 17.7014 60.0154 18.082 60.4126 18.3498C60.8098 18.6176 61.2781 18.7604 61.7571 18.7598C62.0692 18.7816 62.3823 18.7378 62.6764 18.6312C62.9705 18.5246 63.239 18.3575 63.4646 18.1409C63.6902 17.9242 63.868 17.6627 63.9864 17.3731C64.1048 17.0836 64.1613 16.7725 64.1521 16.4598Z" fill="#DAC5A7"/>
<path d="M68.7243 16.6586C68.7202 15.62 69.0243 14.6034 69.5984 13.7378C70.1724 12.8722 70.9904 12.1964 71.9488 11.7961C72.9072 11.3957 73.9628 11.2888 74.982 11.4889C76.0012 11.689 76.9381 12.187 77.674 12.92C78.4099 13.6529 78.9117 14.5878 79.1159 15.6062C79.3201 16.6246 79.2174 17.6807 78.8209 18.6407C78.4244 19.6006 77.7519 20.4214 76.8886 20.9988C76.0252 21.5763 75.01 21.8846 73.9713 21.8846C73.2819 21.8925 72.5977 21.7628 71.959 21.5032C71.3202 21.2436 70.7396 20.8593 70.2511 20.3728C69.7625 19.8862 69.3759 19.3071 69.1138 18.6694C68.8516 18.0317 68.7192 17.3481 68.7243 16.6586ZM76.2483 16.6586C76.2359 16.2109 76.0918 15.7768 75.8341 15.4105C75.5763 15.0443 75.2163 14.7621 74.7991 14.5994C74.3818 14.4366 73.9258 14.4004 73.4882 14.4954C73.0505 14.5904 72.6505 14.8122 72.3382 15.1333C72.026 15.4543 71.8152 15.8603 71.7324 16.3005C71.6496 16.7406 71.6984 17.1954 71.8727 17.608C72.047 18.0206 72.339 18.3726 72.7122 18.6201C73.0855 18.8676 73.5234 18.9996 73.9713 18.9996C74.278 19.0078 74.5831 18.9523 74.8673 18.8367C75.1516 18.7211 75.4088 18.5479 75.6227 18.328C75.8366 18.108 76.0027 17.8461 76.1103 17.5588C76.218 17.2715 76.265 16.965 76.2483 16.6586Z" fill="#DAC5A7"/>
<path d="M80.603 9.05642C80.603 8.70397 80.7075 8.35944 80.9033 8.0664C81.0991 7.77335 81.3775 7.54494 81.7031 7.41007C82.0287 7.27519 82.387 7.2399 82.7327 7.30866C83.0783 7.37742 83.3959 7.54714 83.6451 7.79636C83.8943 8.04557 84.064 8.36309 84.1328 8.70877C84.2015 9.05444 84.1662 9.41274 84.0314 9.73836C83.8965 10.064 83.6681 10.3423 83.375 10.5381C83.082 10.7339 82.7375 10.8384 82.385 10.8384C81.9139 10.8337 81.4633 10.6445 81.1301 10.3113C80.797 9.97812 80.6077 9.52758 80.603 9.05642ZM80.903 11.7094H83.874V21.6094H80.899L80.903 11.7094Z" fill="#DAC5A7"/>
<path d="M96.6984 16.6593C96.7327 17.3136 96.6374 17.9682 96.4178 18.5855C96.1983 19.2028 95.8589 19.7706 95.4191 20.2563C94.9794 20.7419 94.4479 21.1359 93.8554 21.4155C93.2628 21.695 92.6209 21.8547 91.9664 21.8853C91.416 21.9153 90.8659 21.8225 90.3558 21.6136C89.8457 21.4046 89.3886 21.0848 89.0174 20.6773V25.5683H86.0474V11.7093H89.0174V12.6393C89.3887 12.2321 89.846 11.9125 90.356 11.7038C90.8661 11.495 91.4161 11.4023 91.9664 11.4323C92.621 11.4628 93.2631 11.6224 93.8558 11.902C94.4485 12.1816 94.98 12.5756 95.4198 13.0614C95.8596 13.5472 96.199 14.1152 96.4184 14.7327C96.6378 15.3501 96.733 16.0049 96.6984 16.6593ZM93.7284 16.6593C93.7168 16.196 93.5688 15.7464 93.3029 15.3667C93.037 14.9871 92.6651 14.6943 92.2337 14.5251C91.8022 14.3558 91.3304 14.3175 90.8773 14.4151C90.4242 14.5126 90.01 14.7416 89.6864 15.0734C89.3628 15.4053 89.1443 15.8251 89.0582 16.2806C88.9721 16.736 89.0222 17.2066 89.2023 17.6337C89.3823 18.0608 89.6844 18.4252 90.0706 18.6815C90.4568 18.9377 90.9099 19.0744 91.3734 19.0743C91.6916 19.0885 92.0092 19.0352 92.3054 18.918C92.6015 18.8009 92.8696 18.6224 93.0919 18.3944C93.3143 18.1663 93.4859 17.8939 93.5956 17.5949C93.7053 17.2959 93.7506 16.977 93.7284 16.6593Z" fill="#DAC5A7"/>
<path d="M105.863 18.6379C105.863 20.9149 103.884 21.8849 101.746 21.8849C100.882 21.9631 100.015 21.7805 99.2561 21.3604C98.4972 20.9404 97.8818 20.3024 97.4893 19.5289L100.062 18.0639C100.166 18.4214 100.39 18.7325 100.696 18.945C101.001 19.1576 101.371 19.2589 101.742 19.2319C102.454 19.2319 102.811 19.0139 102.811 18.6189C102.811 17.5289 97.9403 18.1039 97.9403 14.6789C97.9403 12.5199 99.7623 11.4319 101.821 11.4319C102.595 11.4074 103.361 11.591 104.04 11.9635C104.719 12.3361 105.286 12.8839 105.681 13.5499L103.147 14.9159C103.036 14.6566 102.851 14.4357 102.615 14.2808C102.379 14.1259 102.103 14.0439 101.821 14.0449C101.306 14.0449 100.989 14.2449 100.989 14.5989C100.993 15.7279 105.863 14.9749 105.863 18.6379Z" fill="#DAC5A7"/>
<path d="M116.712 11.709V21.609H113.742V20.678C113.399 21.0888 112.964 21.4125 112.472 21.6225C111.98 21.8325 111.446 21.9228 110.912 21.886C108.912 21.886 107.212 20.461 107.212 17.786V11.709H110.182V17.351C110.157 17.5868 110.184 17.8252 110.261 18.0495C110.337 18.2739 110.462 18.4789 110.626 18.6502C110.79 18.8215 110.989 18.955 111.21 19.0415C111.43 19.128 111.667 19.1654 111.904 19.151C112.993 19.151 113.745 18.518 113.745 17.112V11.712L116.712 11.709Z" fill="#DAC5A7"/>
<path d="M133.742 15.5297V21.6077H130.772V15.7867C130.772 14.7967 130.297 14.1637 129.347 14.1637C128.357 14.1637 127.802 14.8567 127.802 16.0247V21.6077H124.833V15.7867C124.833 14.7967 124.358 14.1637 123.407 14.1637C122.417 14.1637 121.863 14.8567 121.863 16.0247V21.6077H118.893V11.7077H121.863V12.6177C122.171 12.214 122.575 11.8938 123.038 11.6865C123.502 11.4791 124.01 11.3912 124.516 11.4307C125.024 11.4058 125.53 11.5131 125.985 11.742C126.439 11.9708 126.826 12.3136 127.109 12.7367C127.438 12.294 127.874 11.942 128.376 11.7136C128.878 11.4852 129.43 11.3879 129.98 11.4307C132.253 11.4317 133.742 13.0547 133.742 15.5297Z" fill="#DAC5A7"/>
<path d="M136.254 11.6482C137.471 11.6482 138.458 10.6614 138.458 9.44423C138.458 8.22699 137.471 7.24023 136.254 7.24023C135.037 7.24023 134.05 8.22699 134.05 9.44423C134.05 10.6614 135.037 11.6482 136.254 11.6482Z" fill="#DAC5A7"/>
</svg>
