<svg width="153" height="19" viewBox="0 0 153 19" fill="none" xmlns="http://www.w3.org/2000/svg">
<path d="M76.6627 16.3744H71.5427V2.68635H76.6627V16.3744ZM72.0427 15.8744H76.1627V3.18635H72.0427V15.8744ZM83.7867 16.3744H78.7697V2.68635H89.2517C90.7533 2.56475 92.2487 2.98632 93.4657 3.87435C93.9896 4.35366 94.3957 4.94754 94.6522 5.60964C94.9088 6.27175 95.0089 6.98418 94.9447 7.69135C95.0195 8.91332 94.6306 10.1186 93.8557 11.0664C92.9387 12.1184 91.4127 12.6604 89.3207 12.6794C88.7937 12.6934 84.8447 12.6794 83.7897 12.6794L83.7867 16.3744ZM79.2667 15.8744H83.2867V12.1744H83.5377C83.5887 12.1744 88.7157 12.1904 89.3087 12.1744C91.2577 12.1574 92.6587 11.6744 93.4777 10.7314C94.1675 9.8738 94.5101 8.7885 94.4377 7.69035C94.4992 7.05672 94.4139 6.41744 94.1885 5.82209C93.963 5.22674 93.6035 4.69132 93.1377 4.25735C92.0093 3.44745 90.6287 3.06728 89.2447 3.18535H79.2697L79.2667 15.8744ZM88.1897 9.60435H83.2527V5.87835H88.2227C88.575 5.82967 88.9339 5.87079 89.266 5.99788C89.5982 6.12498 89.8929 6.33393 90.1227 6.60535C90.3312 6.95229 90.4295 7.35433 90.4047 7.75835C90.4234 8.13345 90.3424 8.50682 90.1697 8.84035C89.9326 9.12623 89.6259 9.3463 89.2791 9.4794C88.9324 9.6125 88.5572 9.65415 88.1897 9.60035V9.60435ZM83.7527 9.10435H88.1897C89.0097 9.10435 89.5177 8.93335 89.7427 8.58135C89.8666 8.3255 89.9227 8.04211 89.9057 7.75835C89.9276 7.46041 89.863 7.16249 89.7197 6.90035L89.7137 6.89135C89.4757 6.54135 89.0027 6.37835 88.2227 6.37835H83.7527V9.10435ZM104.07 16.5764C99.5797 16.5764 96.8997 15.4614 95.8787 13.1684C95.7116 12.7255 95.5982 12.2642 95.5407 11.7944L95.4967 11.5064H100.839L100.874 11.7164C100.915 11.9296 101.006 12.1303 101.138 12.3024C101.349 12.5574 102.053 12.9854 104.389 12.9854C107.197 12.9854 107.197 12.4924 107.197 12.2274C107.197 11.7804 106.872 11.6274 104.582 11.3834L104.147 11.3424C103.285 11.2614 102.195 11.1584 101.697 11.1154C97.4967 10.7354 95.6217 9.43035 95.6217 6.88535C95.6217 4.21235 98.8127 2.48535 103.752 2.48535C107.781 2.48535 110.377 3.54735 111.466 5.64435C111.724 6.13213 111.898 6.66034 111.979 7.20635L112.014 7.48735H106.666L106.644 7.26135C106.623 7.08473 106.548 6.91904 106.428 6.78735C106.228 6.51935 105.596 6.07635 103.634 6.07635C101.225 6.07635 100.893 6.38435 100.893 6.71635C100.893 7.15935 101.654 7.31635 104.093 7.57735C105.11 7.66035 106.745 7.82835 107.305 7.89635C110.826 8.27835 112.397 9.55135 112.397 12.0254C112.398 14.1004 110.953 16.5764 104.07 16.5764ZM96.0807 12.0064C96.1308 12.3362 96.217 12.6594 96.3377 12.9704C97.2677 15.0594 99.7977 16.0764 104.07 16.0764C107.642 16.0764 111.901 15.3764 111.901 12.0254C111.901 9.83235 110.511 8.74635 107.252 8.39335C106.692 8.32535 105.067 8.15835 104.052 8.07435C101.452 7.79235 100.395 7.64235 100.395 6.71635C100.395 5.75835 101.534 5.57635 103.636 5.57635C105.297 5.57635 106.37 5.87635 106.825 6.48135C106.949 6.6304 107.043 6.8023 107.101 6.98735H111.435C111.348 6.6006 111.21 6.22704 111.025 5.87635C110.025 3.95735 107.582 2.98535 103.754 2.98535C99.1187 2.98535 96.1237 4.51635 96.1237 6.88535C96.1237 9.14535 97.8047 10.2614 101.743 10.6174C102.243 10.6604 103.332 10.7634 104.196 10.8454L104.634 10.8864C106.761 11.1104 107.699 11.2504 107.699 12.2274C107.699 13.2794 106.486 13.4854 104.391 13.4854C102.453 13.4854 101.229 13.1944 100.756 12.6214C100.61 12.4387 100.5 12.23 100.432 12.0064H96.0807ZM121.897 16.5594C116.677 16.5594 113.797 14.4484 113.797 10.6144V2.68635H118.849V10.6144C118.849 11.9294 120.026 12.6834 122.077 12.6834C124.037 12.6834 125.254 11.8964 125.254 10.6314V2.68635H130.254V11.0344C130.259 14.5454 127.21 16.5594 121.894 16.5594H121.897ZM114.297 3.18635V10.6144C114.297 15.3524 119.055 16.0594 121.897 16.0594C124.835 16.0594 129.762 15.4064 129.762 11.0344V3.18635H125.762V10.6314C125.762 12.1814 124.318 13.1834 122.085 13.1834C119.751 13.1834 118.357 12.2234 118.357 10.6144V3.18635H114.297ZM151.442 16.3744H146.674V10.1944L143.97 16.3744H139.811L137.135 10.2064V16.3744H132.35V2.68635H138.644L141.914 10.2334L145.342 2.68635H151.448L151.442 16.3744ZM147.174 15.8744H150.942V3.18635H145.66L141.898 11.4654L138.312 3.18635H132.846V15.8744H136.631V7.80035L140.131 15.8774H143.631L147.168 7.81235L147.174 15.8744ZM7.02373 2.93635H2.46973V16.1244H15.0537V12.6134H7.02373V2.93635ZM24.2457 2.63635C18.4327 2.63635 15.3757 5.39135 15.3757 9.43635C15.3757 14.0064 18.5847 16.3244 24.2457 16.3244C30.4777 16.3244 33.0987 13.6364 33.0987 9.43635C33.0987 5.17135 30.1417 2.63435 24.2457 2.63435V2.63635ZM24.2287 6.06335C24.6244 6.06149 25.0199 6.08453 25.4127 6.13235L20.3217 11.2234C20.0808 10.6785 19.9633 10.087 19.9777 9.49135C19.9777 7.42235 21.0197 6.06135 24.2287 6.06135V6.06335ZM24.2457 12.9514C23.8644 12.9531 23.4834 12.9317 23.1047 12.8874L28.2047 7.78735C28.4366 8.32325 28.5476 8.90368 28.5297 9.48735C28.5297 11.5004 27.5697 12.9494 24.2457 12.9494V12.9514ZM42.1217 11.1514H46.8087C46.7397 11.4767 46.5959 11.7814 46.3887 12.0414C45.417 12.833 44.1769 13.2182 42.9277 13.1164C42.2989 13.1837 41.6631 13.115 41.0632 12.915C40.4633 12.7151 39.9133 12.3885 39.4507 11.9574C38.9768 11.2623 38.7517 10.4275 38.8117 9.58835C38.735 8.70909 38.9798 7.83187 39.5007 7.11935C40.1557 6.37935 41.2647 6.06035 42.8947 6.06035C43.9318 5.97448 44.9676 6.24083 45.8347 6.81635C46.108 7.03343 46.3123 7.32526 46.4227 7.65635H50.7697C50.7381 7.11082 50.6069 6.57568 50.3827 6.07735C49.3417 3.96035 46.9217 2.70035 42.8067 2.70035C39.2277 2.70035 36.8257 3.79235 35.4987 5.43935C34.6223 6.62871 34.1724 8.07879 34.2217 9.55535C34.165 11.0654 34.6033 12.5525 35.4697 13.7904C36.7807 15.4904 39.1157 16.3264 41.9217 16.3264C43.7872 16.4565 45.64 15.934 47.1627 14.8484L47.2807 16.1244H50.8917V8.31235H42.1217V11.1514ZM61.1407 2.63335C55.3287 2.63335 52.2707 5.38835 52.2707 9.43335C52.2707 14.0034 55.4787 16.3214 61.1407 16.3214C67.3737 16.3214 69.9947 13.6334 69.9947 9.43335C69.9947 5.17135 67.0377 2.63435 61.1407 2.63435V2.63335ZM61.1247 6.06035C61.51 6.05921 61.895 6.08125 62.2777 6.12635L57.2067 11.2004C56.9733 10.6615 56.8597 10.0785 56.8737 9.49135C56.8697 7.42235 57.9157 6.06135 61.1247 6.06135V6.06035ZM61.1407 12.9484C60.7493 12.9501 60.3582 12.9273 59.9697 12.8804L65.0867 7.76235C65.3274 8.30538 65.4426 8.89567 65.4237 9.48935C65.4257 11.5004 64.4697 12.9494 61.1407 12.9494V12.9484Z" fill="#DAC5A7"/>
</svg>
