<svg width="16" height="17" viewBox="0 0 16 17" fill="none" xmlns="http://www.w3.org/2000/svg">
<path d="M13.7625 8.76264L9.2625 13.2626C9.22803 13.2971 9.1871 13.3245 9.14206 13.3431C9.09702 13.3618 9.04875 13.3714 9 13.3714C8.95125 13.3714 8.90298 13.3618 8.85794 13.3431C8.8129 13.3245 8.77197 13.2971 8.7375 13.2626C8.70303 13.2282 8.67568 13.1872 8.65703 13.1422C8.63837 13.0972 8.62877 13.0489 8.62877 13.0001C8.62877 12.9514 8.63837 12.9031 8.65703 12.8581C8.67568 12.813 8.70303 12.7721 8.7375 12.7376L12.5938 8.87514H2.5C2.40054 8.87514 2.30516 8.83563 2.23483 8.7653C2.16451 8.69498 2.125 8.59959 2.125 8.50014C2.125 8.40068 2.16451 8.3053 2.23483 8.23497C2.30516 8.16465 2.40054 8.12514 2.5 8.12514H12.5938L8.7375 4.26264C8.66788 4.19302 8.62877 4.09859 8.62877 4.00014C8.62877 3.90168 8.66788 3.80726 8.7375 3.73764C8.80712 3.66802 8.90154 3.62891 9 3.62891C9.09846 3.62891 9.19288 3.66802 9.2625 3.73764L13.7625 8.23764C13.798 8.27149 13.8264 8.31222 13.8457 8.35734C13.865 8.40246 13.875 8.45105 13.875 8.50014C13.875 8.54923 13.865 8.59781 13.8457 8.64293C13.8264 8.68806 13.798 8.72878 13.7625 8.76264Z" fill="#DAC5A7"/>
</svg>
