<svg width="16" height="17" viewBox="0 0 16 17" fill="none" xmlns="http://www.w3.org/2000/svg">
<path d="M12.375 4.5V11C12.375 11.0995 12.3355 11.1948 12.2652 11.2652C12.1949 11.3355 12.0995 11.375 12 11.375C11.9006 11.375 11.8052 11.3355 11.7348 11.2652C11.6645 11.1948 11.625 11.0995 11.625 11V5.40625L4.26252 12.7625C4.1929 12.8321 4.09847 12.8712 4.00002 12.8712C3.90156 12.8712 3.80713 12.8321 3.73752 12.7625C3.6679 12.6929 3.62878 12.5985 3.62878 12.5C3.62878 12.4015 3.6679 12.3071 3.73752 12.2375L11.0938 4.875H5.50002C5.40056 4.875 5.30518 4.83549 5.23485 4.76516C5.16452 4.69484 5.12502 4.59946 5.12502 4.5C5.12502 4.40054 5.16452 4.30516 5.23485 4.23483C5.30518 4.16451 5.40056 4.125 5.50002 4.125H12C12.0995 4.125 12.1949 4.16451 12.2652 4.23483C12.3355 4.30516 12.375 4.40054 12.375 4.5Z" fill="#DAC5A7"/>
</svg>
